# xmcd
#
# Track frame offsets:
#	150
#	13508
#	31421
#	49885
#	62842
#	77191
#	90715
#	103647
#	118904
#	135830
#
# Disc length: 1996 seconds
#
# Revision: 3
# Processed by: cddbd v1.5.2PL0 Copyright (c) Steve Scherf et al.
# Submitted via: audiograbber 1.83.01
#
DISCID=7e07ca0a
DTITLE=Pandora - Pandora
DYEAR=1985
DGENRE=Latin
TTITLE0=Cuando No Estas Conmigo
TTITLE1=Tarde O Temprano
TTITLE2=Como Te Va Mi Amor
TTITLE3=Dejame
TTITLE4=De Mil Maneras
TTITLE5=Todo Por Amor
TTITLE6=Quiereme Mas
TTITLE7=Para Escribir Tu Nombre
TTITLE8=Que Facil Es
TTITLE9=Volver A Empezar
EXTD=
EXTT0=
EXTT1=
EXTT2=
EXTT3=
EXTT4=
EXTT5=
EXTT6=
EXTT7=
EXTT8=
EXTT9=
PLAYORDER=
